<svg width="78" height="86" viewBox="0 0 78 86" fill="none" xmlns="http://www.w3.org/2000/svg">
<mask id="path-1-outside-1_17_3" maskUnits="userSpaceOnUse" x="-1" y="-1" width="79" height="87" fill="black">
<rect fill="white" x="-1" y="-1" width="79" height="87"/>
<path fill-rule="evenodd" clip-rule="evenodd" d="M32.6851 4.72258C29.1261 6.89258 24.9591 11.9896 23.4061 16.0736L22.3571 18.8346L29.6731 14.8196C38.1771 10.1516 39.2241 10.0096 42.1451 13.1176C45.2951 16.4716 44.9331 17.1806 38.7691 19.7356C4.09613 34.1066 -10.0849 68.2856 17.6841 70.5536C23.4491 71.0246 23.9851 71.2886 26.5711 74.9446C36.9201 89.5766 51.0271 82.3916 56.2991 59.8036C57.3441 55.3266 58.6491 53.1836 63.3131 48.2836C77.3191 33.5696 77.7271 19.6486 64.2671 15.7886L61.5791 15.0176L62.8651 19.2886C63.5721 21.6386 64.7211 24.4746 65.4201 25.5926C68.9231 31.2026 56.6331 46.9386 42.5991 54.8136C36.0781 58.4726 35.7071 59.0646 37.3051 63.2656L38.2901 65.8586L42.4021 63.7616C47.2901 61.2676 48.0291 61.6766 46.2771 65.9046C44.4521 70.3106 40.4771 74.8036 38.4041 74.8036C32.4441 74.8036 26.3631 59.0506 26.3341 43.5316L26.3191 35.7596L32.1841 31.9696C38.1651 28.1036 47.0551 24.2056 47.9191 25.0706C48.1831 25.3336 48.9521 28.5476 49.6281 32.2126L50.8581 38.8746L54.2541 35.3706L57.6511 31.8656L56.3741 26.1576C52.3411 8.13758 42.1731 -1.06342 32.6851 4.72258ZM14.5501 47.6716C8.44113 56.0506 9.55413 62.8036 17.0461 62.8036H20.4631L19.7701 57.0536C19.3891 53.8906 18.7751 49.5036 18.4061 47.3036L17.7351 43.3036L14.5501 47.6716"/>
</mask>
<path fill-rule="evenodd" clip-rule="evenodd" d="M32.6851 4.72258C29.1261 6.89258 24.9591 11.9896 23.4061 16.0736L22.3571 18.8346L29.6731 14.8196C38.1771 10.1516 39.2241 10.0096 42.1451 13.1176C45.2951 16.4716 44.9331 17.1806 38.7691 19.7356C4.09613 34.1066 -10.0849 68.2856 17.6841 70.5536C23.4491 71.0246 23.9851 71.2886 26.5711 74.9446C36.9201 89.5766 51.0271 82.3916 56.2991 59.8036C57.3441 55.3266 58.6491 53.1836 63.3131 48.2836C77.3191 33.5696 77.7271 19.6486 64.2671 15.7886L61.5791 15.0176L62.8651 19.2886C63.5721 21.6386 64.7211 24.4746 65.4201 25.5926C68.9231 31.2026 56.6331 46.9386 42.5991 54.8136C36.0781 58.4726 35.7071 59.0646 37.3051 63.2656L38.2901 65.8586L42.4021 63.7616C47.2901 61.2676 48.0291 61.6766 46.2771 65.9046C44.4521 70.3106 40.4771 74.8036 38.4041 74.8036C32.4441 74.8036 26.3631 59.0506 26.3341 43.5316L26.3191 35.7596L32.1841 31.9696C38.1651 28.1036 47.0551 24.2056 47.9191 25.0706C48.1831 25.3336 48.9521 28.5476 49.6281 32.2126L50.8581 38.8746L54.2541 35.3706L57.6511 31.8656L56.3741 26.1576C52.3411 8.13758 42.1731 -1.06342 32.6851 4.72258ZM14.5501 47.6716C8.44113 56.0506 9.55413 62.8036 17.0461 62.8036H20.4631L19.7701 57.0536C19.3891 53.8906 18.7751 49.5036 18.4061 47.3036L17.7351 43.3036L14.5501 47.6716" fill="url(#paint0_linear_17_3)"/>
<path d="M32.6851 4.72258L34.2469 7.28401L34.2471 7.2839L32.6851 4.72258ZM23.4061 16.0736L20.602 15.0073L20.6017 15.0081L23.4061 16.0736ZM22.3571 18.8346L19.5527 17.7691L16.6598 25.3833L23.8005 21.4646L22.3571 18.8346ZM29.6731 14.8196L31.1165 17.4496L31.1167 17.4494L29.6731 14.8196ZM42.1451 13.1176L44.3319 11.0638L44.3312 11.063L42.1451 13.1176ZM38.7691 19.7356L39.9178 22.507L39.9179 22.5069L38.7691 19.7356ZM17.6841 70.5536L17.9284 67.5635L17.9283 67.5635L17.6841 70.5536ZM26.5711 74.9446L29.0204 73.2122L29.0204 73.2122L26.5711 74.9446ZM56.2991 59.8036L53.3777 59.1217L53.3777 59.1217L56.2991 59.8036ZM63.3131 48.2836L61.1402 46.2152L61.1401 46.2152L63.3131 48.2836ZM64.2671 15.7886L63.44 18.6723L63.4401 18.6723L64.2671 15.7886ZM61.5791 15.0176L62.4063 12.1339L57.1214 10.618L58.7065 15.8825L61.5791 15.0176ZM62.8651 19.2886L65.7379 18.4243L65.7377 18.4236L62.8651 19.2886ZM65.4201 25.5926L67.9648 24.0036L67.9639 24.0022L65.4201 25.5926ZM42.5991 54.8136L44.0672 57.4299L44.0672 57.4298L42.5991 54.8136ZM37.3051 63.2656L40.1096 62.2002L40.1091 62.199L37.3051 63.2656ZM38.2901 65.8586L35.4857 66.9239L36.6734 70.0507L39.653 68.5311L38.2901 65.8586ZM42.4021 63.7616L43.765 66.4341L43.7656 66.4338L42.4021 63.7616ZM46.2771 65.9046L43.5057 64.7561L43.5055 64.7565L46.2771 65.9046ZM26.3341 43.5316L29.3341 43.526V43.5258L26.3341 43.5316ZM26.3191 35.7596L24.6909 33.2399L23.316 34.1284L23.3191 35.7654L26.3191 35.7596ZM32.1841 31.9696L33.8124 34.4893L33.8127 34.4891L32.1841 31.9696ZM47.9191 25.0706L45.7966 27.1907L45.8018 27.1959L47.9191 25.0706ZM49.6281 32.2126L46.6779 32.7567L46.678 32.7573L49.6281 32.2126ZM50.8581 38.8746L47.908 39.4193L48.9641 45.1395L53.0124 40.9624L50.8581 38.8746ZM54.2541 35.3706L52.0999 33.2827L52.0999 33.2827L54.2541 35.3706ZM57.6511 31.8656L59.8054 33.9535L60.9323 32.7907L60.5788 31.2106L57.6511 31.8656ZM56.3741 26.1576L59.3018 25.5026L59.3017 25.5024L56.3741 26.1576ZM20.4631 62.8036V65.8036H23.8464L23.4416 62.4446L20.4631 62.8036ZM19.7701 57.0536L16.7917 57.4124L16.7917 57.4125L19.7701 57.0536ZM18.4061 47.3036L21.3648 46.8073L21.3648 46.8073L18.4061 47.3036ZM17.7351 43.3036L20.6938 42.8073L19.5137 35.7725L15.3111 41.5361L17.7351 43.3036ZM31.1234 2.16115C28.9599 3.48027 26.7821 5.56577 24.9707 7.78159C23.1544 10.0035 21.5262 12.5768 20.602 15.0073L26.2102 17.1399C26.839 15.4863 28.0709 13.4692 29.616 11.5791C31.1662 9.68289 32.8514 8.1349 34.2469 7.28401L31.1234 2.16115ZM20.6017 15.0081L19.5527 17.7691L25.1615 19.9001L26.2105 17.1391L20.6017 15.0081ZM23.8005 21.4646L31.1165 17.4496L28.2298 12.1896L20.9138 16.2046L23.8005 21.4646ZM31.1167 17.4494C33.2458 16.2807 34.8243 15.4422 36.0607 14.8689C37.3258 14.2823 38.0171 14.0784 38.4082 14.0251C38.6618 13.9905 38.6797 14.0257 38.7211 14.0483C38.9097 14.1514 39.2445 14.4118 39.9591 15.1721L44.3312 11.063C43.5853 10.2694 42.6938 9.38198 41.5989 8.78349C40.3566 8.10448 39.0335 7.8842 37.5973 8.08011C36.2985 8.25726 34.951 8.76983 33.5367 9.42562C32.0938 10.0947 30.3525 11.0244 28.2296 12.1897L31.1167 17.4494ZM39.9584 15.1714C40.7546 16.0192 41.0687 16.4387 41.1747 16.6348C41.2101 16.7001 41.1268 16.5733 41.1005 16.3011C41.0694 15.9801 41.1351 15.642 41.2776 15.3629C41.3976 15.1275 41.5128 15.0506 41.4414 15.1108C41.3712 15.1701 41.2034 15.2929 40.8712 15.4795C40.1918 15.861 39.1628 16.3249 37.6204 16.9642L39.9179 22.5069C41.4575 21.8687 42.7852 21.2859 43.8089 20.7111C44.7319 20.1928 45.9562 19.395 46.6222 18.0895C47.4638 16.44 47.0382 14.8635 46.452 13.7798C45.9326 12.8198 45.1106 11.893 44.3319 11.0638L39.9584 15.1714ZM37.6205 16.9642C19.7442 24.3734 6.82493 37.0008 2.03992 48.5335C-0.348871 54.2909 -0.882757 60.255 1.75095 65.1083C4.43891 70.0615 9.907 72.9284 17.4399 73.5436L17.9283 67.5635C11.5768 67.0448 8.4041 64.7888 7.0245 62.2465C5.59064 59.6042 5.56238 55.7001 7.58184 50.8329C11.6133 41.1163 23.121 29.4688 39.9178 22.507L37.6205 16.9642ZM17.4398 73.5436C20.5022 73.7938 21.4335 73.969 21.991 74.2444C22.3864 74.4397 22.769 74.7643 24.1219 76.677L29.0204 73.2122C27.7873 71.4689 26.6088 69.8334 24.6485 68.865C22.8502 67.9767 20.6311 67.7843 17.9284 67.5635L17.4398 73.5436ZM24.1218 76.6769C26.9442 80.6673 30.2174 83.4504 33.8233 84.7503C37.5038 86.0771 41.262 85.7561 44.7005 84.0048C51.3586 80.6137 56.511 72.0951 59.2206 60.4855L53.3777 59.1217C50.8153 70.1001 46.2781 76.4679 41.9775 78.6583C39.9367 79.6978 37.8981 79.8413 35.8581 79.1059C33.7436 78.3436 31.3726 76.5379 29.0204 73.2122L24.1218 76.6769ZM59.2206 60.4855C59.6981 58.4397 60.1898 57.1118 61.0114 55.7624C61.8751 54.3438 63.1792 52.7756 65.4861 50.3519L61.1401 46.2152C58.7831 48.6915 57.1026 50.6448 55.8866 52.642C54.6285 54.7084 53.9451 56.6905 53.3777 59.1217L59.2206 60.4855ZM65.4861 50.352C72.7129 42.7599 76.887 34.9253 77.0886 28.0538C77.1916 24.5431 76.2486 21.2692 74.1233 18.5695C72.0137 15.8898 68.9187 14.0016 65.0941 12.9048L63.4401 18.6723C66.3456 19.5056 68.247 20.805 69.4089 22.2809C70.5551 23.7368 71.1584 25.5865 71.0912 27.8778C70.9523 32.6104 67.9194 39.0933 61.1402 46.2152L65.4861 50.352ZM65.0943 12.9049L62.4063 12.1339L60.752 17.9013L63.44 18.6723L65.0943 12.9049ZM58.7065 15.8825L59.9925 20.1535L65.7377 18.4236L64.4517 14.1526L58.7065 15.8825ZM59.9923 20.1529C60.7221 22.5785 61.9624 25.7211 62.8764 27.183L67.9639 24.0022C67.4799 23.2281 66.4222 20.6987 65.7379 18.4243L59.9923 20.1529ZM62.8755 27.1815C62.9926 27.3691 63.2778 28.2426 62.4904 30.3812C61.7567 32.3741 60.3061 34.8381 58.2216 37.5072C54.0618 42.8335 47.7796 48.4666 41.1311 52.1973L44.0672 57.4298C51.4527 53.2856 58.3324 47.1132 62.9504 41.2003C65.2548 38.2497 67.097 35.2356 68.121 32.4541C69.0914 29.8183 69.5991 26.621 67.9648 24.0036L62.8755 27.1815ZM41.1311 52.1973C39.511 53.1064 38.1527 53.8906 37.0993 54.6131C36.0742 55.3162 35.0523 56.1467 34.3651 57.2438C32.7522 59.8187 33.7974 62.4821 34.5011 64.3322L40.1091 62.199C39.2149 59.8481 39.6466 60.1149 39.4499 60.4289C39.4496 60.4294 39.4978 60.3528 39.6686 60.1955C39.8415 60.0365 40.1017 59.8295 40.493 59.5611C41.2933 59.0122 42.4268 58.3503 44.0672 57.4299L41.1311 52.1973ZM34.5007 64.3309L35.4857 66.9239L41.0946 64.7933L40.1096 62.2002L34.5007 64.3309ZM39.653 68.5311L43.765 66.4341L41.0392 61.089L36.9272 63.186L39.653 68.5311ZM43.7656 66.4338C44.9674 65.8207 45.7668 65.464 46.2761 65.292C46.5317 65.2056 46.5916 65.2089 46.5176 65.2158C46.4741 65.2199 45.9777 65.2694 45.3776 64.9375C45.0565 64.7599 44.7705 64.5066 44.5517 64.1947C44.3403 63.8935 44.2378 63.6043 44.1888 63.3947C44.102 63.024 44.1608 62.8135 44.1404 62.9338C44.126 63.0186 44.0816 63.2092 43.97 63.5418C43.8617 63.8647 43.7093 64.2648 43.5057 64.7561L49.0486 67.053C49.4931 65.9804 49.894 64.8918 50.0559 63.9369C50.1363 63.4633 50.205 62.7709 50.0308 62.0271C49.8311 61.1741 49.2998 60.2503 48.2816 59.6871C47.3932 59.1957 46.5046 59.1908 45.9588 59.2419C45.3825 59.2958 44.8298 59.4475 44.3561 59.6074C43.4069 59.9281 42.2809 60.4555 41.0387 61.0893L43.7656 66.4338ZM43.5055 64.7565C42.732 66.624 41.4689 68.5692 40.1867 70.0185C39.5469 70.7418 38.9684 71.2661 38.5195 71.5836C37.9711 71.9717 37.9706 71.8036 38.4041 71.8036V77.8036C39.8742 77.8036 41.1479 77.0739 41.9849 76.4818C42.9213 75.8192 43.8394 74.9449 44.6805 73.9942C46.3603 72.0954 47.9973 69.5912 49.0488 67.0526L43.5055 64.7565ZM38.4041 71.8036C38.2659 71.8036 37.5352 71.6713 36.3285 70.1984C35.1935 68.8131 34.0128 66.6767 32.9438 63.9069C30.8141 58.3894 29.348 50.9375 29.3341 43.526L23.3341 43.5372C23.3493 51.6447 24.9382 59.8287 27.3463 66.0675C28.546 69.1759 30.005 71.9476 31.6873 74.001C33.2979 75.9667 35.5623 77.8036 38.4041 77.8036V71.8036ZM29.3341 43.5258L29.3191 35.7538L23.3191 35.7654L23.3341 43.5374L29.3341 43.5258ZM27.9474 38.2793L33.8124 34.4893L30.5559 29.4499L24.6909 33.2399L27.9474 38.2793ZM33.8127 34.4891C36.6496 32.6553 40.2224 30.7881 43.1752 29.4935C44.6584 28.8431 45.9033 28.3735 46.7731 28.1211C47.2235 27.9904 47.456 27.953 47.5178 27.9472C47.5524 27.944 47.4224 27.9618 47.1974 27.9263C47.0163 27.8976 46.3809 27.7757 45.7966 27.1907L50.0417 22.9505C49.3493 22.2573 48.5433 22.0645 48.1341 21.9998C47.681 21.9282 47.2656 21.9448 46.9627 21.973C46.3496 22.0299 45.6991 22.1853 45.1011 22.3588C43.8742 22.7148 42.3607 23.2992 40.7658 23.9985C37.5624 25.403 33.6997 27.4178 30.5556 29.4501L33.8127 34.4891ZM45.8018 27.1959C45.4832 26.8785 45.3307 26.5724 45.315 26.5423C45.2901 26.4946 45.2736 26.4586 45.2653 26.4398C45.2565 26.4201 45.2519 26.4085 45.2514 26.4074C45.2511 26.4066 45.2588 26.4261 45.2743 26.4721C45.2893 26.5166 45.3083 26.5758 45.3312 26.6515C45.4264 26.9659 45.5527 27.4422 45.7015 28.064C45.9965 29.2967 46.3472 30.9638 46.6779 32.7567L52.5784 31.6684C52.2331 29.7964 51.8613 28.0239 51.5368 26.6677C51.3758 25.995 51.2181 25.3894 51.0737 24.9126C51.0031 24.6794 50.9213 24.4288 50.8298 24.1979C50.7847 24.0841 50.7197 23.9301 50.6338 23.7655C50.5775 23.6576 50.3881 23.2956 50.0364 22.9452L45.8018 27.1959ZM46.678 32.7573L47.908 39.4193L53.8083 38.3299L52.5783 31.6679L46.678 32.7573ZM53.0124 40.9624L56.4084 37.4584L52.0999 33.2827L48.7039 36.7867L53.0124 40.9624ZM56.4084 37.4585L59.8054 33.9535L55.4969 29.7777L52.0999 33.2827L56.4084 37.4585ZM60.5788 31.2106L59.3018 25.5026L53.4465 26.8126L54.7235 32.5206L60.5788 31.2106ZM59.3017 25.5024C57.2103 16.1578 53.4498 8.68753 48.5881 4.28834C46.1313 2.06526 43.3103 0.557724 40.2399 0.125993C37.1361 -0.310418 34.0285 0.389572 31.1232 2.16127L34.2471 7.2839C36.0858 6.16259 37.8072 5.84296 39.4044 6.06755C41.035 6.29682 42.7871 7.1309 44.5624 8.73733C48.1649 11.9971 51.5049 18.1374 53.4466 26.8128L59.3017 25.5024ZM12.126 45.9042C8.89991 50.3291 7.091 54.946 7.73773 58.8678C8.07965 60.9412 9.11626 62.7813 10.8849 64.0531C12.6002 65.2866 14.7465 65.8036 17.0461 65.8036V59.8036C15.5998 59.8036 14.7974 59.4764 14.3878 59.1819C14.0316 58.9257 13.767 58.5538 13.6578 57.8916C13.4023 56.3421 14.0914 53.3931 16.9742 49.439L12.126 45.9042ZM17.0461 65.8036H20.4631V59.8036H17.0461V65.8036ZM23.4416 62.4446L22.7486 56.6946L16.7917 57.4125L17.4847 63.1625L23.4416 62.4446ZM22.7486 56.6948C22.3641 53.5032 21.7439 49.0675 21.3648 46.8073L15.4475 47.7998C15.8064 49.9397 16.4141 54.278 16.7917 57.4124L22.7486 56.6948ZM21.3648 46.8073L20.6938 42.8073L14.7765 43.7999L15.4475 47.7999L21.3648 46.8073ZM15.3111 41.5361L12.1261 45.9041L16.9742 49.4391L20.1592 45.0711L15.3111 41.5361Z" fill="url(#paint1_linear_17_3)" mask="url(#path-1-outside-1_17_3)"/>
<defs>
<linearGradient id="paint0_linear_17_3" x1="55" y1="20" x2="28" y2="50" gradientUnits="userSpaceOnUse">
<stop stop-color="#F2C23E"/>
<stop offset="1" stop-color="#02727C"/>
</linearGradient>
<linearGradient id="paint1_linear_17_3" x1="-3" y1="3" x2="74" y2="83" gradientUnits="userSpaceOnUse">
<stop/>
<stop offset="1" stop-color="#004C53"/>
</linearGradient>
</defs>
</svg>
